<?xml version="1.0" encoding="utf-8"?>
<!-- Generator: Adobe Illustrator 23.1.1, SVG Export Plug-In . SVG Version: 6.00 Build 0)  -->
<svg version="1.1" id="Layer_1" xmlns="http://www.w3.org/2000/svg" xmlns:xlink="http://www.w3.org/1999/xlink" x="0px" y="0px"
	 viewBox="0 0 576 576" style="enable-background:new 0 0 576 576;" xml:space="preserve">
<style type="text/css">
	.st0{fill:#3B2716;}
	.st1{fill:#F1AF5A;}
	.st2{font-family:'MyriadPro-Regular';}
	.st3{font-size:300px;}
</style>
<g>
	<path class="st0" d="M136.4,515C94.8,515,61,481.2,61,439.6V136.4C61,94.8,94.8,61,136.4,61h303.1c41.6,0,75.4,33.8,75.4,75.4
		v303.1c0,41.6-33.8,75.4-75.4,75.4H136.4z"/>
	<path class="st1" d="M439.6,74c34.4,0,62.4,28,62.4,62.4v303.1c0,34.4-28,62.4-62.4,62.4H136.4C102,502,74,474,74,439.6V136.4
		C74,102,102,74,136.4,74H439.6 M439.6,48H136.4C87.6,48,48,87.6,48,136.4v303.1c0,48.8,39.6,88.4,88.4,88.4h303.1
		c48.8,0,88.4-39.6,88.4-88.4V136.4C528,87.6,488.4,48,439.6,48L439.6,48z"/>
</g>
<text transform="matrix(1 0 0 1 161.5496 376.0506)" class="st1 st2 st3">Ai</text>
</svg>
